<svg width="176" height="52" viewBox="0 0 176 52" fill="none" xmlns="http://www.w3.org/2000/svg">
<path d="M0 16C0 7.16344 7.16344 0 16 0H160C168.837 0 176 7.16344 176 16V36C176 44.8366 168.837 52 160 52H16C7.16344 52 0 44.8366 0 36V16Z" fill="#C7E0F1"/>
<path d="M66.1875 31H73.0312V29.7344H67.5938V19.7266H66.1875V31ZM77.9766 31.1562C79.75 31.1562 81.0781 30.0938 81.3438 28.75L81.3594 28.6719H80.0234L80 28.7422C79.7656 29.4375 79.0391 29.9531 78.0078 29.9531C76.5625 29.9531 75.6406 28.9766 75.6094 27.3047H81.4609V26.8047C81.4609 24.3672 80.1094 22.7188 77.8906 22.7188C75.6719 22.7188 74.2344 24.4453 74.2344 26.9609V26.9688C74.2344 29.5234 75.6406 31.1562 77.9766 31.1562ZM77.8828 23.9219C79.0703 23.9219 79.9453 24.6641 80.0781 26.2422H75.6328C75.7812 24.7266 76.7031 23.9219 77.8828 23.9219ZM84.9453 31H86.3281L88.1562 24.7109H88.1875L90.0234 31H91.4062L93.6719 22.875H92.3281L90.7031 29.4844H90.6719L88.8281 22.875H87.5156L85.6797 29.4844H85.6484L84.0234 22.875H82.6719L84.9453 31ZM97.5078 31.1562C98.5938 31.1562 99.5703 30.5703 100.047 29.6797H100.078V31H101.438V25.3828C101.438 23.7578 100.234 22.7188 98.3125 22.7188C96.3984 22.7188 95.2344 23.7969 95.1172 25.1328L95.1094 25.2188H96.4219L96.4375 25.1484C96.5938 24.4219 97.25 23.9219 98.2969 23.9219C99.4297 23.9219 100.078 24.5234 100.078 25.5156V26.1953L97.75 26.3281C95.8828 26.4375 94.8047 27.3047 94.8047 28.6875V28.7031C94.8047 30.1797 95.8906 31.1562 97.5078 31.1562ZM96.1953 28.7031V28.6875C96.1953 27.9297 96.8203 27.4453 97.9062 27.3828L100.078 27.25V27.9141C100.078 29.0938 99.0938 29.9766 97.8125 29.9766C96.8359 29.9766 96.1953 29.4844 96.1953 28.7031ZM106.305 31.1562C106.57 31.1562 106.859 31.125 107.031 31.1016V30C106.914 30.0078 106.758 30.0312 106.594 30.0312C105.867 30.0312 105.484 29.7891 105.484 28.9219V24H107.031V22.875H105.484V20.6797H104.078V22.875H102.891V24H104.078V28.9297C104.078 30.4844 104.812 31.1562 106.305 31.1562ZM109.758 21.5C110.234 21.5 110.609 21.1172 110.609 20.6484C110.609 20.1719 110.234 19.7969 109.758 19.7969C109.289 19.7969 108.906 20.1719 108.906 20.6484C108.906 21.1172 109.289 21.5 109.758 21.5ZM109.078 31H110.438V22.875H109.078V31Z" fill="#1E84C6"/>
</svg>
