<svg width="12" height="14" viewBox="0 0 12 14" fill="none" xmlns="http://www.w3.org/2000/svg">
<path d="M6.23242 0.693359C6.02051 0.693359 5.8291 0.789062 5.61035 0.966797L1.00293 4.69922C0.838867 4.83594 0.743164 5.03418 0.743164 5.27344C0.743164 5.73828 1.10547 6.07324 1.53613 6.07324C1.72754 6.07324 1.91895 5.99121 2.11035 5.84082L6.23926 2.51172L10.3545 5.84082C10.5459 5.99121 10.7441 6.07324 10.9355 6.07324C11.3662 6.07324 11.7285 5.73828 11.7285 5.27344C11.7285 5.03418 11.626 4.83594 11.4688 4.69922L6.85449 0.966797C6.63574 0.789062 6.45117 0.693359 6.23242 0.693359ZM6.23242 13.3057C6.45117 13.3057 6.63574 13.21 6.85449 13.0391L11.4688 9.30664C11.626 9.16992 11.7285 8.97168 11.7285 8.72559C11.7285 8.26758 11.3662 7.93262 10.9355 7.93262C10.7441 7.93262 10.5459 8.00781 10.3545 8.16504L6.23926 11.4873L2.11035 8.16504C1.91895 8.00781 1.72754 7.93262 1.53613 7.93262C1.10547 7.93262 0.743164 8.26758 0.743164 8.72559C0.743164 8.97168 0.838867 9.16992 1.00293 9.30664L5.61035 13.0391C5.8291 13.21 6.02051 13.3057 6.23242 13.3057Z" fill="#A0A4A8"/>
</svg>
