<svg width="47" height="24" viewBox="0 0 47 24" fill="none" xmlns="http://www.w3.org/2000/svg">
<path d="M0 12C0 5.37258 5.37258 0 12 0H35C41.6274 0 47 5.37258 47 12C47 18.6274 41.6274 24 35 24H12C5.37258 24 0 18.6274 0 12Z" fill="#F4CFE6"/>
<path d="M29.5744 6.43417C29.2293 6.08908 28.6718 6.08908 28.3267 6.43417L23.9998 10.7522L19.673 6.42532C19.3279 6.08023 18.7704 6.08023 18.4253 6.42532C18.0802 6.77041 18.0802 7.32786 18.4253 7.67295L22.7522 11.9998L18.4253 16.3267C18.0802 16.6718 18.0802 17.2293 18.4253 17.5744C18.7704 17.9194 19.3279 17.9194 19.673 17.5744L23.9998 13.2475L28.3267 17.5744C28.6718 17.9194 29.2293 17.9194 29.5744 17.5744C29.9194 17.2293 29.9194 16.6718 29.5744 16.3267L25.2475 11.9998L29.5744 7.67295C29.9106 7.33671 29.9106 6.77041 29.5744 6.43417Z" fill="#D33F9A"/>
</svg>
