<svg width="56" height="32" viewBox="0 0 56 32" fill="none" xmlns="http://www.w3.org/2000/svg">
<path d="M0 15C0 6.71573 6.71573 0 15 0H41C49.2843 0 56 6.71573 56 15V17C56 25.2843 49.2843 32 41 32H15C6.71573 32 0 25.2843 0 17V15Z" fill="#F1F9C5"/>
<path d="M35.7442 11.854C36.1399 11.3688 36.0686 10.6536 35.585 10.2566C35.1013 9.85963 34.3885 9.93115 33.9927 10.4164L26.0534 20.1514L21.9316 16.0163C21.4897 15.573 20.7733 15.573 20.3314 16.0163C19.8895 16.4596 19.8895 17.1783 20.3314 17.6216L25.1542 22.4601C25.2186 22.5649 25.3012 22.661 25.4015 22.7434C25.8852 23.1404 26.5981 23.0688 26.9938 22.5836L35.7442 11.854Z" fill="#8EA412"/>
</svg>
