<svg width="47" height="24" viewBox="0 0 47 24" fill="none" xmlns="http://www.w3.org/2000/svg">
<path d="M0 12C0 5.37258 5.37258 0 12 0H35C41.6274 0 47 5.37258 47 12C47 18.6274 41.6274 24 35 24H12C5.37258 24 0 18.6274 0 12Z" fill="#F1F9C5"/>
<path fill-rule="evenodd" clip-rule="evenodd" d="M30.9148 8.04049C31.2645 7.61305 31.2015 6.98303 30.7741 6.6333C30.3466 6.28357 29.7166 6.34657 29.3669 6.77402L22.3502 15.35L22.2931 15.293L18.7074 11.7072C18.3168 11.3166 17.6837 11.3166 17.2931 11.7072C16.9026 12.0977 16.9026 12.7309 17.2931 13.1214L20.8789 16.7072L21.5555 17.3837C21.6124 17.4761 21.6854 17.5607 21.7741 17.6333C22.2015 17.983 22.8315 17.92 23.1812 17.4926L30.9148 8.04049Z" fill="#8EA412"/>
</svg>
