<svg width="56" height="32" viewBox="0 0 56 32" fill="none" xmlns="http://www.w3.org/2000/svg">
<path d="M0 15C0 6.71573 6.71573 0 15 0H41C49.2843 0 56 6.71573 56 15V17C56 25.2843 49.2843 32 41 32H15C6.71573 32 0 25.2843 0 17V15Z" fill="#FAFAFA"/>
<path d="M34.6894 9.3212C34.2753 8.90709 33.6064 8.90709 33.1923 9.3212L28 14.5028L22.8077 9.31058C22.3936 8.89647 21.7247 8.89647 21.3106 9.31058C20.8965 9.72469 20.8965 10.3936 21.3106 10.8077L26.5028 16L21.3106 21.1923C20.8965 21.6064 20.8965 22.2753 21.3106 22.6894C21.7247 23.1035 22.3936 23.1035 22.8077 22.6894L28 17.4972L33.1923 22.6894C33.6064 23.1035 34.2753 23.1035 34.6894 22.6894C35.1035 22.2753 35.1035 21.6064 34.6894 21.1923L29.4972 16L34.6894 10.8077C35.0929 10.4042 35.0929 9.72469 34.6894 9.3212Z" fill="#DE6FB3"/>
</svg>
