<svg width="56" height="32" viewBox="0 0 56 32" fill="none" xmlns="http://www.w3.org/2000/svg">
<path d="M0 15C0 6.71573 6.71573 0 15 0H41C49.2843 0 56 6.71573 56 15V17C56 25.2843 49.2843 32 41 32H15C6.71573 32 0 25.2843 0 17V15Z" fill="#FAFAFA"/>
<path fill-rule="evenodd" clip-rule="evenodd" d="M28.2454 26.0001C26.8904 26.0001 25.5694 25.9852 24.2624 25.9581C22.5904 25.9251 21.4334 24.8411 21.2444 23.1291C20.9294 20.2891 20.3904 13.5951 20.3854 13.5281C20.3514 13.1151 20.6594 12.7531 21.0724 12.7201C21.4794 12.7091 21.8474 12.9951 21.8804 13.4071C21.8854 13.4751 22.4234 20.1461 22.7354 22.9641C22.8424 23.9371 23.3674 24.4391 24.2934 24.4581C26.7934 24.5112 29.3444 24.5141 32.0944 24.4641C33.0784 24.4451 33.6104 23.9531 33.7204 22.9571C34.0304 20.1631 34.5704 13.4751 34.5764 13.4071C34.6094 12.9951 34.9744 12.7071 35.3834 12.7201C35.7964 12.7541 36.1044 13.1151 36.0714 13.5281C36.0654 13.5961 35.5234 20.3071 35.2114 23.1221C35.0174 24.8691 33.8634 25.9321 32.1214 25.9641C30.7884 25.9871 29.5024 26.0001 28.2454 26.0001Z" fill="#DE6FB3"/>
<path fill-rule="evenodd" clip-rule="evenodd" d="M36.708 10.9893H19.75C19.336 10.9893 19 10.6533 19 10.2393C19 9.82526 19.336 9.48926 19.75 9.48926H36.708C37.122 9.48926 37.458 9.82526 37.458 10.2393C37.458 10.6533 37.122 10.9893 36.708 10.9893Z" fill="#DE6FB3"/>
<path fill-rule="evenodd" clip-rule="evenodd" d="M33.4386 10.9895C32.3006 10.9895 31.3126 10.1785 31.0886 9.06249L30.8456 7.84649C30.7946 7.66149 30.5836 7.50049 30.3436 7.50049H26.1106C25.8706 7.50049 25.6596 7.66149 25.5986 7.89249L25.3656 9.06249C25.1426 10.1785 24.1536 10.9895 23.0156 10.9895C22.6016 10.9895 22.2656 10.6535 22.2656 10.2395C22.2656 9.82549 22.6016 9.48949 23.0156 9.48949C23.4416 9.48949 23.8116 9.18549 23.8956 8.76749L24.1386 7.55149C24.3856 6.61949 25.1926 6.00049 26.1106 6.00049H30.3436C31.2616 6.00049 32.0686 6.61949 32.3056 7.50649L32.5596 8.76749C32.6426 9.18549 33.0126 9.48949 33.4386 9.48949C33.8526 9.48949 34.1886 9.82549 34.1886 10.2395C34.1886 10.6535 33.8526 10.9895 33.4386 10.9895Z" fill="#DE6FB3"/>
</svg>
