<svg width="47" height="24" viewBox="0 0 47 24" fill="none" xmlns="http://www.w3.org/2000/svg">
<path d="M0 12C0 5.37258 5.37258 0 12 0H35C41.6274 0 47 5.37258 47 12C47 18.6274 41.6274 24 35 24H12C5.37258 24 0 18.6274 0 12Z" fill="#1E84C6"/>
<path d="M27.3535 14.3077V14.5243L27.5115 14.6724L28.5581 15.6538H19.2739L20.3205 14.6724L20.4785 14.5243V14.3077V11.2308C20.4785 9.53336 21.4191 8.18978 23.0401 7.82964L23.4316 7.74264V7.34154V6.92308C23.4316 6.71825 23.6167 6.5 23.916 6.5C24.2153 6.5 24.4004 6.71825 24.4004 6.92308V7.34154V7.74234L24.7916 7.82956C26.4066 8.18964 27.3535 9.53994 27.3535 11.2308V14.3077ZM24.5057 17.2692C24.3618 17.4081 24.1569 17.5 23.916 17.5C23.6723 17.5 23.4672 17.4082 23.3239 17.2692H24.5057Z" fill="white" stroke="white"/>
</svg>
